<svg xmlns="http://www.w3.org/2000/svg" version="1.1" xmlns:xlink="http://www.w3.org/1999/xlink" xmlns:svgjs="http://svgjs.com/svgjs" width="1440" height="560" preserveAspectRatio="none" viewBox="0 0 1440 560"><g mask="url(&quot;#SvgjsMask1880&quot;)" fill="none"><rect width="1440" height="560" x="0" y="0" fill="rgba(30, 144, 255, 1)"></rect><path d="M878 256L533 -89" stroke-width="6" stroke="url(#SvgjsLinearGradient1881)" stroke-linecap="round" class="TopLeft"></path><path d="M313 407L-33 61" stroke-width="8" stroke="url(#SvgjsLinearGradient1881)" stroke-linecap="round" class="TopLeft"></path><path d="M1024 127L653 -244" stroke-width="6" stroke="url(#SvgjsLinearGradient1882)" stroke-linecap="round" class="BottomRight"></path><path d="M995 220L661 -114" stroke-width="10" stroke="url(#SvgjsLinearGradient1881)" stroke-linecap="round" class="TopLeft"></path><path d="M1383 249L1556 422" stroke-width="6" stroke="url(#SvgjsLinearGradient1881)" stroke-linecap="round" class="TopLeft"></path><path d="M407 73L811 477" stroke-width="6" stroke="url(#SvgjsLinearGradient1882)" stroke-linecap="round" class="BottomRight"></path><path d="M391 289L634 532" stroke-width="6" stroke="url(#SvgjsLinearGradient1882)" stroke-linecap="round" class="BottomRight"></path><path d="M1087 537L1294 744" stroke-width="6" stroke="url(#SvgjsLinearGradient1882)" stroke-linecap="round" class="BottomRight"></path><path d="M1277 341L1057 121" stroke-width="10" stroke="url(#SvgjsLinearGradient1882)" stroke-linecap="round" class="BottomRight"></path><path d="M118 194L328 404" stroke-width="6" stroke="url(#SvgjsLinearGradient1882)" stroke-linecap="round" class="BottomRight"></path><path d="M270 165L119 14" stroke-width="6" stroke="url(#SvgjsLinearGradient1882)" stroke-linecap="round" class="BottomRight"></path><path d="M384 193L57 -134" stroke-width="10" stroke="url(#SvgjsLinearGradient1881)" stroke-linecap="round" class="TopLeft"></path><path d="M86 539L496 949" stroke-width="10" stroke="url(#SvgjsLinearGradient1881)" stroke-linecap="round" class="TopLeft"></path><path d="M1288 41L1008 -239" stroke-width="6" stroke="url(#SvgjsLinearGradient1882)" stroke-linecap="round" class="BottomRight"></path><path d="M1411 173L1139 -99" stroke-width="8" stroke="url(#SvgjsLinearGradient1882)" stroke-linecap="round" class="BottomRight"></path><path d="M484 381L768 665" stroke-width="8" stroke="url(#SvgjsLinearGradient1882)" stroke-linecap="round" class="BottomRight"></path><path d="M1128 287L1494 653" stroke-width="6" stroke="url(#SvgjsLinearGradient1882)" stroke-linecap="round" class="BottomRight"></path><path d="M764 304L463 3" stroke-width="10" stroke="url(#SvgjsLinearGradient1882)" stroke-linecap="round" class="BottomRight"></path><path d="M540 245L936 641" stroke-width="8" stroke="url(#SvgjsLinearGradient1882)" stroke-linecap="round" class="BottomRight"></path><path d="M805 289L1156 640" stroke-width="10" stroke="url(#SvgjsLinearGradient1882)" stroke-linecap="round" class="BottomRight"></path><path d="M483 30L87 -366" stroke-width="10" stroke="url(#SvgjsLinearGradient1881)" stroke-linecap="round" class="TopLeft"></path><path d="M933 222L1348 637" stroke-width="10" stroke="url(#SvgjsLinearGradient1881)" stroke-linecap="round" class="TopLeft"></path><path d="M1113 558L1454 899" stroke-width="6" stroke="url(#SvgjsLinearGradient1881)" stroke-linecap="round" class="TopLeft"></path><path d="M56 483L-318 109" stroke-width="10" stroke="url(#SvgjsLinearGradient1882)" stroke-linecap="round" class="BottomRight"></path><path d="M378 345L536 503" stroke-width="10" stroke="url(#SvgjsLinearGradient1882)" stroke-linecap="round" class="BottomRight"></path><path d="M775 143L1010 378" stroke-width="8" stroke="url(#SvgjsLinearGradient1882)" stroke-linecap="round" class="BottomRight"></path><path d="M168 381L533 746" stroke-width="10" stroke="url(#SvgjsLinearGradient1881)" stroke-linecap="round" class="TopLeft"></path><path d="M1190 542L1376 728" stroke-width="8" stroke="url(#SvgjsLinearGradient1881)" stroke-linecap="round" class="TopLeft"></path><path d="M617 337L418 138" stroke-width="6" stroke="url(#SvgjsLinearGradient1882)" stroke-linecap="round" class="BottomRight"></path><path d="M319 362L667 710" stroke-width="10" stroke="url(#SvgjsLinearGradient1881)" stroke-linecap="round" class="TopLeft"></path><path d="M226 467L-120 121" stroke-width="8" stroke="url(#SvgjsLinearGradient1881)" stroke-linecap="round" class="TopLeft"></path><path d="M1092 417L1282 607" stroke-width="8" stroke="url(#SvgjsLinearGradient1882)" stroke-linecap="round" class="BottomRight"></path><path d="M985 285L1180 480" stroke-width="10" stroke="url(#SvgjsLinearGradient1882)" stroke-linecap="round" class="BottomRight"></path><path d="M1393 355L1724 686" stroke-width="10" stroke="url(#SvgjsLinearGradient1881)" stroke-linecap="round" class="TopLeft"></path><path d="M1164 188L1493 517" stroke-width="8" stroke="url(#SvgjsLinearGradient1882)" stroke-linecap="round" class="BottomRight"></path><path d="M653 299L860 506" stroke-width="10" stroke="url(#SvgjsLinearGradient1881)" stroke-linecap="round" class="TopLeft"></path><path d="M303 422L76 195" stroke-width="8" stroke="url(#SvgjsLinearGradient1882)" stroke-linecap="round" class="BottomRight"></path><path d="M494 265L82 -147" stroke-width="10" stroke="url(#SvgjsLinearGradient1881)" stroke-linecap="round" class="TopLeft"></path><path d="M295 138L546 389" stroke-width="8" stroke="url(#SvgjsLinearGradient1881)" stroke-linecap="round" class="TopLeft"></path></g><defs><mask id="SvgjsMask1880"><rect width="1440" height="560" fill="#ffffff"></rect></mask><linearGradient x1="100%" y1="100%" x2="0%" y2="0%" id="SvgjsLinearGradient1881"><stop stop-color="rgba(255, 255, 255, 0)" offset="0"></stop><stop stop-color="rgba(255, 255, 255, 1)" offset="1"></stop></linearGradient><linearGradient x1="0%" y1="0%" x2="100%" y2="100%" id="SvgjsLinearGradient1882"><stop stop-color="rgba(255, 255, 255, 0)" offset="0"></stop><stop stop-color="rgba(255, 255, 255, 1)" offset="1"></stop></linearGradient></defs></svg>